<?xml version="1.0" encoding="UTF-8"?>
<svg id="_Слой_2" data-name="Слой 2" xmlns="http://www.w3.org/2000/svg" viewBox="0 0 427.75 381.66">
  <g id="_Слой_1-2" data-name="Слой 1">
    <g>
      <path d="m133.8,114.64c-1.85-1.85-4.33,4.02-1.85,4.64-.62-3.09,1.55-3.09,1.85-4.64Zm-9.58,13.91c-1.24,3.4-3.71,5.56-6.49,6.8,0-2.16,1.55-3.09,2.78-4.33.93-.62,2.16-2.78,3.09-3.71,1.85-2.47,7.11-4.02,4.94-6.49-1.24,2.78-3.71,2.16-5.87,3.71-.93.93-1.24,3.4-2.16,4.02-.31.62-1.24-.31-1.85,0,0,0-.62,2.16-.93,2.47-.93.93-2.16.93-2.78,1.24-.62.62-.62,2.78-.93,3.09-.62.31-1.85-.31-2.16,0-.93.93-.93,2.78-1.55,3.71-.62.31-1.85,0-2.16,0-.31.31-.31,2.47-.93,2.78-.62.62-1.85.93-2.78,1.24-2.47,1.85-5.87,6.49-8.03,6.8-1.24,0-2.47,1.55-3.71,2.47-.31.31-1.24,1.24-1.55,1.24-1.24,0-.93.93-1.24,1.24-1.24,1.24-2.47.31-3.71,1.24-.31.31-.93,2.47-.93,2.78-.31.62-1.55-.31-2.16,0-.62.62-1.24,1.85-1.85,2.47-.93,1.55-2.47.62-3.71,1.55-1.85,1.24-3.4,3.71-4.64,4.02-1.24,0-.31.93-1.24,1.24-2.47,1.55-6.18,2.47-7.42,3.71-2.16,2.16-3.71,1.55-5.87,2.78-.31,0-1.24,2.16-2.16,2.78-1.24.62-2.78.62-3.71,1.24-4.64,1.85-9.89,3.71-14.21,4.02-.62,0-1.24,1.24-1.24,1.24-.62,0-.31-1.24-.62-1.24-.93-.93-1.85,1.24-2.16,1.24-4.94.31-12.36-2.78-14.21-5.25-2.47-3.09-4.33-14.21-4.94-18.54,0-1.24.93-1.24,1.24-1.24,0-1.24-1.24-1.24-1.24-1.24-.31-8.03,3.09-16.38,3.09-22.25,0-.93.62-1.55.62-1.24.62-1.24-.62-2.16-.62-3.09,0,0,1.55-1.55,1.85-2.47.62-1.55,2.16-4.33,1.85-5.25,0-.31-.93.31-.93-1.24,0,0,.93-.31.93-1.24.31-.93,0-2.16,0-2.47.31-.93,1.55-2.16,1.85-3.09.93-1.55.62-3.09.93-4.94,0-.31.93-.62,1.24-1.55,1.24-2.47,1.24-7.42,3.09-7.42,1.55-.62,3.09-9.58,3.71-10.82,3.09-3.09,4.94-7.42,7.42-11.74,1.24-1.85,2.78-3.09,3.71-5.25.93-1.24.31-2.47,1.24-3.71,0-.62,1.55-1.24,1.55-1.85.62,0,0-1.85,0-2.47.93-.62,2.47-.31,3.09-1.24.62-1.24.31-2.78,1.24-4.02.31-.62,1.85-.62,2.78-1.24.31-.93.93-3.09,1.55-3.71,2.78-3.71,7.73-11.43,9.58-12.05.62,0,1.85.31,2.16,0,.31,0-.31-2.16,0-2.47.31-.62,1.55.31,1.55,0,.62-.62,0-2.16,0-2.47.62-.62,1.85.31,2.16,0,1.24-1.24,2.16-1.85,3.09-3.09,1.24-1.24,2.47-3.71,3.71-4.94,1.55-1.55,4.94-1.24,5.56-4.02,1.85.31,2.16-1.85,3.09-2.47,2.47-2.47,4.02-4.64,7.42-4.33,1.24-3.4,2.47-3.71,4.94-3.71.93,0,.31-1.24.93-1.24,2.16-1.24,5.87-2.47,7.73-2.78.93,0,1.24,1.24,1.85,1.55,0,0,.31-1.55,1.24-1.55,0,0,0,1.24.62,1.55,1.85.31,4.33-.31,5.25,2.47,1.55,5.87.31,9.58,0,11.74-.62.31,0,1.24,0,1.24-.62,1.55-.93.62-1.24,1.55-3.09,6.8-5.87,12.98-9.58,18.23-.62,2.47-1.85,2.47-3.09,3.71-.62,2.16-1.85,3.4-1.55,6.8,4.02,2.47,7.73,2.47,11.12,0,3.09-2.16,3.4-5.56,5.87-8.03.93-3.09,4.64-4.02,6.49-7.73.93-.93.62-2.47,1.24-3.71,0-.93,1.24-2.16,1.85-3.09.62-.62,1.55-1.24,2.16-2.47,4.02-8.34-2.78-14.52-4.02-22.25-3.09-.93-6.49-4.64-7.73-6.18-.31-1.24-4.33-1.85-4.64-1.85-1.24,0-.93-.62-1.24-1.24-2.78-1.24-4.64-.93-7.42-1.24-1.55-.31-3.4-1.24-4.94-1.24-3.09,0-6.8,2.47-10.51,3.71-.62.62-1.85,0-2.78,0-.31.62-1.24,2.47-2.16,3.09-1.55.62-4.64.31-5.25,1.24-.62,0-1.85,1.85-2.16,2.47-.93.62-1.24,1.85-2.16,2.78-.62.93-1.55.31-2.78,1.24-.93.93-1.85,1.55-3.09,2.47-3.71,3.4-7.42,6.8-10.2,9.27-.93,2.78-3.4,4.33-3.71,5.25-.62.62.62,1.85.62,1.24-.31,1.85-1.24,1.85-1.55,2.47-1.55,2.16-3.4,5.56-7.11,5.56-.62,4.02-3.09,7.11-4.33,8.96-.93,1.24-2.16,1.85-2.16,4.33-.62,1.55-3.09,0-3.71,1.24-.62.31.31,1.85,0,2.47-.93.62-1.24,1.55-2.16,2.47,0,.31-1.24-.62-1.55,0-.93.93,0,2.78-1.24,2.78-1.85,0-.93,4.33-1.85,4.94-1.24,2.16-3.4,3.09-4.94,4.33-.31,7.11-7.42,11.12-7.42,17,0,1.55-.93.31-.93,1.24-1.85,4.02-4.94,9.58-7.11,12.05,0,.31.62,2.16,0,2.47-.31,1.24-2.47,2.78-2.78,3.71,0,.93.31,2.16,0,2.78-.31,2.47-1.24,4.64-1.55,6.8-1.24,4.02-2.47,9.89-3.09,11.43-1.24,6.49-1.85,14.21-1.85,20.09,0,2.47.62,3.71,1.24,4.94,0,2.47-.62,6.18,0,8.03,0,.31,1.24,1.85,1.55,2.78.93,1.55.31,3.4,1.24,4.94,0,.93,1.24,2.16,1.55,2.78,1.24,2.16,3.09,5.56,3.71,6.49.93.62,2.16.31,3.09,1.55,1.24,1.24,2.47,3.71,4.02,4.94,1.24,1.55,2.47,4.02,3.71,5.56.62.62,2.16.62,3.09,1.24,0,0,.31.62.62,1.24,1.85,1.55,5.25,1.85,8.96,2.47,6.49,1.55,16.38,3.09,23.49,1.55,1.24-.31,1.24-1.24,2.16-1.55,1.24,0,.31-.93.93-1.24.62-.62,1.85.62,2.78,0,.31,0,.31-2.47,1.24-2.47,1.24-.93.93,1.85,1.55,0,.62-.62,1.85,0,2.16,0,2.47-.93,4.33-2.16,4.64-2.78.31-.31,1.55,0,2.16,0,.31-.31,1.24-2.47,1.85-2.78,2.16-1.24,4.64-1.55,5.56-2.47.62-.31,1.55-2.16,1.85-2.47.93-.93,1.24-2.16,2.16-2.78,0-.62,1.85.31,1.85,0,1.24-1.85,0-5.56,1.85-5.25,2.47-.62,4.64-3.09,6.8-5.25.62-.93,1.85-2.78,2.78-3.71,1.24-1.55,3.09-1.55,3.71-2.78,4.33-5.25,7.42-11.74,11.74-17.3h.93c1.24,0,2.78-2.78,2.78-3.71,0-2.78,2.16-2.78,2.78-4.02.93-.93.62-2.78.93-3.71.31-.31,1.55.31,2.16,0,.62-1.24,1.85-3.71.62-5.56Z"/>
      <path d="m169.34,136.58c.62,0,.93.31,1.55.31.93-.62,1.24-.62,2.16-.93,2.16-.31,3.71-1.55,6.18-.93-.31-.62.62-1.24,1.55-.93.62,0,0-.62.93-1.55,0,0,.93.62,1.55.62s.62-.93,1.24-1.24c1.24-.31,3.09-1.85,4.94-1.85.31,0,.62-.93,1.55-.93l7.73-5.56c.31-.31,4.33-.31,1.55-2.16-.31.93-.62.62-1.55.62-2.47-.62-3.09.31-4.94.31-.31,0-.62.93-1.24.62-.93,1.24-2.16.31-2.47.62l-3.4,1.24c-2.16.31-2.78.93-3.71,1.24-1.85.31-1.85.62-4.02,1.24-.62-.31-.31,0-.31,0-2.16.31-4.02.93-5.87,1.55,0-.62.31-.93.31-1.55,0-.31,0-1.24-.31-1.55.31-.31.62-1.24,1.24-1.85l1.85-3.4c1.24-1.55.93-2.16,1.24-4.02,0-.31.62-1.55.93-1.85.62-.93.62-3.09.62-4.33.31-.62,1.24,0,1.24,0,0-.62-.62-1.55-.62-1.55,0-3.09.62-4.94,1.85-6.49,0-7.11-.31-8.03-2.47-12.67-3.09-9.27-8.34-6.49-15.45-5.25-.93,2.16-2.47,3.4-3.09,5.87-.31.93-1.55,1.85-1.24,2.78v2.16c.31,1.55-.31,1.85-.62,2.47,0,1.24.31,1.85,0,2.47-.62,1.85-.31,4.02-.93,5.56.31.62-.31.62-.62.62-.62,7.73-.62,16.07,1.85,25.34-1.24.62-.93,1.85-1.24,2.47-.31.93-1.55,1.85-2.16,2.47-.31.93-.93,1.55-2.16,2.47-.31.62-.93,1.24-1.55,1.85-1.55,1.55-3.09,2.16-4.94,3.4-1.85.62-1.55,3.4-5.87,2.47-2.16-4.94.31-5.25-2.16-8.65,1.55-1.55.93-5.25,2.47-6.49-1.24-2.47-.31-4.02.62-5.87q0-2.16.93-3.4c.31,0-.31-.93-.31-1.55,0,0,.93.62.93,0,.31,0,.31-1.85.31-1.85,1.55-1.85.93-4.02,1.55-4.94.31-1.55,3.09-2.16,2.78-3.71-.62-1.24,0-.62.62-.93,0-.62.93-.93.93-1.55.93-.31.93-.62.62-1.55,3.09.62,3.09-.62,5.25-.62-.62-3.09-3.09-3.09-5.25-3.4-.31,0-.93-.62-.93-.62-6.18-1.24-8.96,4.64-11.12,6.18,0,0,.93,1.24.62,1.55-.93,1.55-2.47,2.47-3.09,3.71-1.24,1.55-1.85,3.4-2.47,5.87-.31,0-.62.93-.31,1.55,0,.93-.31.31-.31.31v3.09c-.62.93-.93.62-.62,1.85.31.62,0,.31-.62.62-.62,2.47-1.55,5.87-1.55,7.11-.93,1.55-.93,3.4-.62,4.64-.62,3.4,0,3.4.93,4.64.31.31-.31.93.62,1.55,0,.93.31.62.62.93l.62,2.47s1.55.62,1.85,1.55c1.24.93.93,1.85,1.55,2.78,4.33,0,7.42,2.78,10.82,3.09,2.47,0,4.02-.93,7.73-.62.93-2.78,4.64-4.02,7.11-6.18,1.24-1.24.62-3.09,1.85-4.02l3.4-3.4c-1.85-2.47.93-1.24.93-2.78.31,0,.93.31,1.24.62l1.24-2.16Zm-2.78-43.57c-.31-.93.93-2.47,1.55-3.71,3.4-.31,1.85-3.71,6.18,3.71,1.55.62,0,.62,0,.62,0,1.24,1.85,1.24.62,2.47-1.85,1.55.62.93.62,3.4-.31,0,.31.93.31,1.55-.62.62-1.24.62-1.55,1.24,0,1.85,0,3.4-.31,4.94l-1.24.62c0,.93.62,1.85.31,3.09-.31.62-1.24.62-1.85.62,0,.31.62,1.55,0,1.55.31.62-.62,0-.62,0-.31.93-1.85,1.85-1.55,3.4.31,1.24-1.55,2.47-1.85,4.02-2.78-.93-1.85-2.78-1.55-4.02,0-.31-.31-1.55-.62-1.85,0-.62.31-.93,0-2.16.31-.93.31-3.71.93-6.18-.31-1.55-.62-3.71-.62-5.25,0-.62,1.55-.93,1.55-.93.31-1.85-.62-4.33-.62-6.49,0,0,.62,0,.31-.62Z"/>
      <path d="m183.86,149.87c0-.93,1.55-1.85,0-2.47,0,1.24-1.85,2.16,0,2.47Zm-7.42,19.47c0,.93.93,3.09.93,1.85.62-1.55-.62-3.71-.93-1.85Zm11.12-32.76c-.31,1.55-3.71,4.64-.93,6.18.62-1.55,2.16-6.18.93-6.18Zm-15.45,49.75c0,2.78.93,3.71.93,4.94,0,.62-.93.31-.93.62-1.55,2.78-.31,2.16,0,3.4.62,1.55-.93,2.47-.93,2.78v2.16c-.62,1.24-2.47,2.47-2.78,3.71,0-.62,1.55.93,1.55,1.85l-1.55,1.55c.31.93-1.24.93-1.24.93,0,1.24,4.02,0,2.16,1.85-.93.93-.62.93-.93,2.78q-.62,2.78,0,4.02c.31,0,.93,1.24.93,2.16,0,1.24-.93,3.4-.93,3.71,0,.62,1.55,1.55,1.55,2.16.62,1.55,0,2.16,1.24,3.4.62,0,0,1.55,0,1.55.62.62,1.55,1.24,1.85,1.85.93,1.55,1.85,2.47,2.78,4.02,2.47,0,5.56.62,7.11-1.24.62-3.4-4.33-.62-4.64-3.4-2.47-4.94-.31-14.83,0-19.16.31-1.24,0-2.47,0-3.71.31-1.55,1.24-2.47,1.85-4.33,0,0-.93-.93-.93-1.85h.93c.62-.62.93-5.25.93-5.87,0-.31.93-.93.93-.93.62-2.78,0-6.49.93-9.89l1.85-1.85c.62-.93-.31-3.09,0-4.33.62-1.55,2.47-.62,1.24-1.85-1.24-.31,1.24-1.85,1.55-1.85,0-.93-.93-.62-.93-.93-.31-.62.62-.93.93-.93,0-1.24-.31-3.4,0-4.33,0-.31,1.85-.31,1.85-.93v-2.78c.62-1.24,1.55-2.47,2.78-4.02,0-3.4,1.24-6.18,2.78-8.03,0,1.55,1.85,1.85,2.78,2.78l1.24,1.85c1.55,0,.62.62,1.24,1.24,1.24.31,6.18,1.55,7.42,1.55.93,0,.93-.62,1.85-.62.31-.62.31-.93.31-.93,3.4-1.24,4.94-.62,5.87-1.24,1.85-1.24,3.4-1.85,4.64-2.78,2.78.62,4.02-2.16,4.33-2.78,1.24,0,1.85,1.55,1.85,0,0-.93.62-.31.93-.93,1.55-1.85,4.02-3.09,5.25-4.33,1.85-1.24,4.02-3.71,4.64-4.64,1.24-.93,2.78,0,2.78-1.85,0-.93,2.16-2.78,3.09-3.4,0-.31,1.55,0,1.55,0,.93-.93.31-2.16.93-2.78,1.24-1.55,3.71-2.16,3.71-4.02,0-1.24,1.85-2.16,2.78-2.78,2.47,2.16,4.02,0,4.33,1.24.31.31,1.85,0,1.85,0,5.25.31,9.89,0,12.67-1.24.62,0,1.24-.62,1.24-.62,2.16-.62,4.64,0,6.18-.62.31-.62,1.24-2.16,1.85-2.16.93,0,1.85,0,2.78-.62.31-.62,1.55-1.55,1.85-2.16.31-.31,2.47-.31,2.78-.62,0-.62-.31-1.55,0-2.16.93-1.24,2.78-1.85,2.16-3.71-11.43,3.4-24.41,9.89-33.37,7.73,4.64-8.03,10.51-14.83,9.27-28.74-1.24.62-.31-.62-.62-1.55-2.16-2.47-5.56-3.4-6.8-6.49h-2.78c-.62,0-.62-.93-.62-.93-2.16-.31-10.2-.31-10.2-.62-1.24.62-1.24.31-2.47.62-2.78.93-4.33,1.55-4.94,2.16,0,.62-1.24,0-1.85,0v.62h-1.55s.31,1.24,0,1.24h-1.55c-3.09.93-3.71,2.16-5.87,3.4-1.85,1.24-2.78,1.55-4.64,1.55-.93,3.09-4.02,4.02-6.18,5.87,0,.93-1.24,1.85-1.85.93,2.78-1.55,2.78-4.64,3.71-6.8.31-.31,1.55-.62,2.16-1.55.31-.62.31-1.85.62-2.47,0-.62,1.55-1.55,1.55-2.16,1.24-1.85,1.85-3.4,2.78-4.64,2.47-2.16,5.87-3.4,5.87-8.03-1.55.62-.62-1.55-1.24-1.85-2.16-2.47-6.8-1.55-8.03-.93-2.78,1.24-3.71,1.85-5.56,4.02-2.47,2.16-2.47,3.4-3.71,4.94-.93,1.85-2.16,3.4-2.47,4.64-.31.62-.93.62-.93,1.24-4.33,6.18-7.73,14.52-9.89,20.7-.62,1.55-.62,2.16-.93,3.71-.31.62-2.16,1.24-2.16,1.85-.31,1.24-.31,2.47-.62,3.4-.93,2.47-1.55,4.33-2.78,5.87.62,3.09-.62,7.73-1.24,8.96,0,.93.62,1.85,0,2.78,0,.62-1.55,1.24-1.55,1.85-1.24,1.85-.62,2.78-1.24,4.33-.62,2.47-1.85,5.87-2.16,7.73-.62.93-.62,1.55-1.24,3.09-.31,1.85-1.85,3.71-1.85,4.64,0,1.24-.93.62-.93,1.24-.93,2.78.62,3.4-.93,4.02v2.16h-.93v1.85c-.62,1.85,0,3.4-.93,5.56,0,0-1.24.93-1.85,1.24,0,1.24.62,3.09-.93,3.09,0-.93.31-2.47-.62-3.09,0,2.16-.31,3.09-.93,4.02,0,1.85,1.55-.62,1.55.93-1.85,1.85-.93.93-.62,3.09.62,2.16-1.85,4.94-1.85,4.94-.93.93.62,4.33-.93,3.71-.31-.62,0-2.47-.93-2.78Zm71.07-94.25c3.4-1.24,6.8,0,9.89-1.24.62.62.62,1.24.93,1.85.93,1.24.62,2.78,1.55,3.71.93.31-1.55,8.34-2.47,9.89-.31.93-.93,1.24-.93,2.78-.62,1.24-2.16,5.25-3.71,7.11-.93,2.16-2.47,3.71-3.71,4.94-15.76-7.42-32.76,1.85-42.64,10.82-1.24,2.78-1.24-1.55.93-1.24-.62-2.16,1.85-1.55.62-4.02,1.55-1.55,1.55-.62,3.09,0-.31-.93-1.55-2.16-.93-2.78,0-.62,1.24,0,1.85,0,.62-.62-.93-1.55-.93-.93.31-1.55,2.47-1.85,3.09-4.02,1.24-.31,1.24-1.85,1.24-2.78.62-.31.93.31.93-.93,0-.93,3.71-2.16,4.64-3.4,3.09-2.78,6.18-7.11,9.89-9.89,1.55-.93,2.78-1.85,4.94-2.78.31-.31.93-1.55,1.24-1.85.62,0,1.85.31,1.85,0,.62-.62,2.78-3.09,4.02-3.09,0,0,.93.62.93,0,.62,0,1.24-1.24,1.85-1.55,0,0,1.55.31,1.85,0,0,0-.31-.62,0-.62Zm-15.76,32.45c4.94-.62,9.89-1.24,13.91,1.24,0,1.55-1.24,1.85-1.85,2.16-.62.62,0,1.24-.93,1.24-1.24,0-.62,1.24-1.24,1.55-1.24,1.85-3.09,3.4-4.64,4.94-2.16,2.78-5.56,5.56-8.96,8.03-1.24,1.55-3.4,2.47-5.25,3.71-.62,0,0,.62-.93,1.24-.31,0-2.78.93-2.78,1.24,0,1.55-.93.31-.93,0-.93.93-1.55,1.55-2.78,1.85-1.55.93-7.42,3.4-10.2.93.62-2.78,1.24-5.87,2.16-8.96,0-.31.62,0,.62-.93v-1.85c.62-.31,2.16-1.55,3.09-2.78.31-.62,1.85-1.55,1.85-2.47,0,0,4.33-4.94,5.25-5.56.62,0,1.24.31,1.85,0v-.93c.62,0,1.55.31,1.85,0v-1.24c2.78-1.24,5.56-2.16,9.89-3.4Z"/>
      <path d="m303.75,148.64c-1.85,3.09-5.25,4.94-8.03,7.73-1.55,0,.31-2.16-1.24-1.55-.31,0-.93,1.55-1.85,1.55-.93,3.4-8.96,7.42-8.96,10.2,0,.93-.62.31-.93.93-2.47,2.78-5.87,7.11-8.03,8.96-.62.62,0,1.24,0,1.85-.62.31-1.24.93-1.85,2.16-.62,0-.62.62-.93,1.55-.62.62-1.55,1.24-1.85,1.55-.62,1.55-1.24,2.78-1.85,3.71-1.24,1.55-2.78,3.4-2.78,4.64s-.62.62-.62,1.24c-.93.93-.62,1.55-.93,2.16-.62,1.55-1.85,2.16-1.85,2.78q-.62,1.55-1.24,2.16c-.31,0,0,1.24,0,1.85-.31.93-.93,1.85-1.55,2.78v1.24c-.62,1.55-1.24,2.47-2.16,2.78-.31.62-.93,5.87-.93,5.87,0,.93-.31.62-.93.93-.93,3.09,0,4.64-.93,8.03,0,0-.31.62-.31,1.24q-.62.62-1.24,1.55c-.31.62,0,3.09,0,3.4-.31,3.09-1.24,5.25-.93,8.65,0,.93,1.55.93,2.16,1.24,0,1.24-1.24,2.78,0,4.02.31.93,1.85.31,2.16.93,1.85,1.85.62,2.47,3.09,2.78,1.55.31,4.02,1.55,6.18.93,0-1.24,1.24-.62,1.55-.93.62-.31,1.24-2.47,1.24-2.78.62-.93,3.09-2.16,1.85-4.94,3.4,0,2.78-3.4,5.56-4.02,0-1.24-.62-1.85,0-2.78,0-.62,1.24-.62,1.24-1.24,1.24-1.24.62-3.4,1.24-4.02.31-1.24,1.55-1.24,1.55-2.16,0-1.85,2.78-3.71,2.16-6.49,4.33-1.55,3.4-5.56,4.64-10.2,0-.31,1.55-.62,1.85-1.55,0-1.24-.31-2.47,0-3.4,5.25-5.25,5.87-15.45,11.43-20.4.62-3.71,2.16-7.73,4.02-8.96.31,0,0-1.55,0-2.16,0,0,.93.62.93,0,.31,0,0-1.24,0-1.24.31-.31,1.24-.31,1.85-.93v-1.85c.62-2.16,2.16-1.55.93-2.78-.93-.62,1.85-1.24,1.85-1.24,0,0-.62-1.24,0-1.55q.62-1.85,1.85-2.47c0-.62-.62-2.16,0-2.16h.62c.31,0,0-1.24,0-1.85.93-.93,1.55-1.55,1.55-2.78,1.24-1.24,0-2.78,1.24-4.02,0-.62,1.85-.93,1.85-.93.31-.62,0-1.85,0-1.85.31-.62,1.55-.62,1.85-1.24.62-.93-.31-2.16,0-2.78.62-.62,1.85-1.85,3.09-2.78,1.55-1.85,4.64-4.02,6.8-4.33,1.55-2.47,4.33-2.78,6.18-4.94,0,2.47,3.09-.31,1.85-1.55-1.24-1.85-4.02-.62-6.18,0-2.47.31-4.02,2.16-6.49,1.55,2.47-1.55,1.85-6.18,4.64-6.8v-4.94c1.85-.31,2.47-1.85,2.78-2.78l1.24-.93c.62-2.16.31-5.56,1.85-8.03,0-.31,1.55,0,1.55-.93v-2.47c0-.31,1.85-.93,1.85-.93.31-.62,0-1.85,0-1.85.93-.93,1.55-1.85,2.78-2.78.31-.62,0-.62.93-.93,1.24-1.55,2.47-3.4,2.78-5.25-.93-2.47-3.4-3.4-4.94-4.02-2.16,0-1.24-2.78-3.4-.62-1.24.62-3.4,0-4.64.62-.93,4.94-3.71,7.73-4.64,12.98-4.33,2.78-8.34,8.65-11.74,12.05-.62,0-1.85,0-2.78.62-.62.62.31,1.55-.62,1.55-2.47.62-3.4,3.4-4.64,4.64-1.24.62-1.85.62-2.78,1.24-.62.31-1.24,2.16-1.85,2.78-.62.62-2.16.62-2.78.62,0,0,0,.62-.62,1.24-1.24.31-2.16,1.55-2.78,1.55-2.47.62-4.94.62-4.94,0-2.78-10.82,6.18-21.63,2.78-33.06-.31,0-1.85,0-1.85-.62-1.85-.93-4.02,1.85-4.02,2.78-.62.93-1.24.31-1.24.93q-1.24,1.85-1.85,3.71c0,.62-.93.62-.93.93-.93,2.78-.93,5.56-1.85,8.96,0,0-.31,0-.93.93-1.24,5.87-3.4,12.67,0,15.45.62.31,0,1.85,0,1.85.62.93,1.85.93,1.85,1.55,0,1.24.31.62.93,1.24,1.85,2.78,2.78,2.16,5.25,3.71.62,0,.93,1.55.93,1.85.62,0,1.24-.31,1.85,0,2.47.62,5.25.62,8.03.62,2.16-1.55,4.33-2.47,5.56-3.4.62-.62,1.85-1.55,2.16-1.85.31-.31,1.24-.31,1.85-.93,2.47-1.55,3.4-4.33,6.18-4.64-.93,4.02-2.78,6.8-3.71,10.82-1.24,0-1.24-.93-2.47-.62-.62,2.47-2.16,3.71-2.78,6.18-2.47,1.85-4.64,3.71-6.8,6.18-.62.31-1.85,1.85-.62,1.85,0-.93,1.55-.31,1.55-1.85.62-.93,1.24-1.24,3.09-1.24Zm-13.91,12.36c1.24-1.55,2.47-3.4,4.64-3.4-.93,1.85-2.78,3.4-4.64,5.25-1.55,1.55-3.4,3.4-4.33,4.64-.93.93-.93,2.16-1.85,3.71-.62.62-2.16.93-2.78,1.24,0,.62.62,2.16,0,2.16q-1.24.93-2.78,2.78c0,.31-.62.31-1.24.93-.62,2.16-1.85,4.33-3.09,6.18-.31.62-1.85.93-1.85.93,0,.62.31,1.24,0,1.85-.62.62-1.85.62-1.85,1.24-1.24,1.55-.62,2.78-1.85,4.64,0,.31-1.24-.62-1.24.93,0,.62-4.33,8.03-2.16,3.4.62-2.78,2.16-4.94,3.4-7.42.31-.31.62,0,.62-.93,0-1.24,2.16-1.85,2.16-3.71,0-.93,1.24-.93,1.85-1.85,0,0-.62-1.55,0-1.55.62-.93,2.16-1.55,2.78-2.78,0-.93,0-1.85,1.24-1.85.62,0,2.16-3.71,2.78-5.25.62-.93,1.24,0,1.24-.93,0-2.16,5.56-5.56,7.42-7.42,0,0-.31-1.55,0-2.16,0-.62,1.55-.62,1.55-.62Zm-25.96,75.71c2.16-5.56,4.64-10.51,7.11-15.76-2.16.62-2.16,2.47-2.78,4.02,0,.31-1.55,1.24-2.16,1.55,0,.62.62,1.85,0,2.47,0,.93-1.24,1.55-1.24,2.16-.62,0,0,1.85,0,1.85-1.55.93-2.47,2.16-2.78,4.64-1.55-.93-2.16-3.09-2.16-3.71,0-2.16.93-2.78.93-4.94.62-2.78,0-5.56,1.24-8.96,0,0,.31,0,.62-.93.62-1.55,0-2.78,1.24-5.25,0,0,.31-.31.93-.93,0-1.55,0-2.16.62-4.02,0-.62,1.55-3.4,2.78-4.94.62-.93,0-2.47.62-4.64.62-.62,1.55-.62,2.16-1.24.31,0-.62-1.24,0-1.85,0,0,.93.62.93,0,.31-.93,0-2.16.93-3.09,0-.62.93,0,.93-1.24s1.85-1.24,1.85-2.78c0-.62,1.24-3.09,2.47-4.64.31,0,1.55-.62,1.55-.93.62,0,0-1.55,0-1.55,1.85-1.55,3.4-3.4,4.94-4.64.62-.31.62-.93.93-1.85,0,0,3.4-3.4,3.4-4.33,0-.31.93-1.85.93-1.85.62-.31,1.85-.93,1.85-.93.62-1.55-.62-2.78.93-2.78.62,0,3.09-2.78,3.71-4.02.93-.62.93-1.85,2.16-2.16.62-1.24,2.78-.62,2.16-1.85,2.47.62-.31,3.4-.93,4.02,0,.62.62,1.24,0,1.24,0,.93-.62.93-.62.93-1.24,2.78-1.85,4.64-2.78,7.42-.31,0-.62-.31-.62.93,0,.31-1.24,3.4-2.16,4.33,0,.62-.31,2.16-.93,2.78h-.93c0,.62.62,1.24,0,1.85,0,0-.93-.62-.93,0,0,0,.31,1.55,0,2.16q-.93.31-1.85,1.24c-.93,2.16-1.24,5.25-2.47,7.42-.31.62-.93,0-.93,1.24,0,1.55-1.85,3.09-2.78,4.94-2.47,4.94-4.33,9.58-5.87,13.91-1.85,2.16-2.16,4.94-3.09,7.11-.31.62-.93,0-.93.93,0,1.55-1.85,1.85-1.85,3.71,0,1.24-2.16,4.02-2.78,5.25,0,.62.31,2.16,0,2.16-1.55,1.24-3.4,4.02-4.33,7.42-1.55-.62,0-.93,0-1.85Zm8.03-16.69c.31-1.24.93-3.71,1.85-5.25,0-.62,1.24-1.24,1.85-1.85,1.24-2.16.62-2.78,1.24-4.64,0-1.55.62-2.47,1.24-3.4.31-.62.93,0,.93-.93.62-1.24.62-1.85.62-2.78,1.24-2.47,1.24-1.85,2.16-3.71.62-1.24.62-1.55.93-2.78.31-.62,1.55-1.24,1.85-1.55.62-1.24.62-2.47.93-3.09,1.55-3.4,2.78-6.49,4.33-9.58.62-1.24,1.24-2.78,0-1.24-1.55,1.24-1.85,2.78-2.16,4.33-1.24,1.85-2.16,3.09-3.09,4.94-.93,1.24-.93,3.4-1.85,5.56,0,.62-1.24.62-1.85,1.24-.62,1.55,0,2.47-1.24,4.02,0,.31-1.24,1.24-1.55,1.85,0,.31.31,1.55,0,1.85,0,1.24-1.24,2.47-1.24,3.09-.62,1.55-.62,2.47-1.24,4.02-.62.62-1.85,1.24-1.85,1.85-.31.93-.93,1.85-.93,2.78-.93,1.55-2.78,4.94-.93,5.25Zm25.34-57.17c0,1.24-3.09,3.71-.93,4.64,0-1.24,2.78-4.33.93-4.64Z"/>
      <path d="m213.81,290.43c-1.85-1.85-4.33,4.02-1.85,4.64-.62-3.09,1.55-3.09,1.85-4.64Zm-9.58,13.91c-1.24,3.4-3.71,5.56-6.49,6.8,0-2.16,1.55-3.09,2.78-4.33.93-.62,2.16-2.78,3.09-3.71,1.85-2.47,7.11-4.02,4.94-6.49-1.24,2.78-3.71,2.16-5.87,3.71-.93.93-1.24,3.4-2.16,4.02-.31.62-1.24-.31-1.85,0,0,0-.62,2.16-.93,2.47-.93.93-2.16.93-2.78,1.24-.62.62-.62,2.78-.93,3.09-.62.31-1.85-.31-2.16,0-.93.93-.93,2.78-1.55,3.71-.62.31-1.85,0-2.16,0-.31.31-.31,2.47-.93,2.78-.62.62-1.85.93-2.78,1.24-2.47,1.85-5.87,6.49-8.03,6.8-1.24,0-2.47,1.55-3.71,2.47-.31.31-1.24,1.24-1.55,1.24-1.24,0-.93.93-1.24,1.24-1.24,1.24-2.47.31-3.71,1.24-.31.31-.93,2.47-.93,2.78-.31.62-1.55-.31-2.16,0-.62.62-1.24,1.85-1.85,2.47-.93,1.55-2.47.62-3.71,1.55-1.85,1.24-3.4,3.71-4.64,4.02-1.24,0-.31.93-1.24,1.24-2.47,1.55-6.18,2.47-7.42,3.71-2.16,2.16-3.71,1.55-5.87,2.78-.31,0-1.24,2.16-2.16,2.78-1.24.62-2.78.62-3.71,1.24-4.64,1.85-9.89,3.71-14.21,4.02-.62,0-1.24,1.24-1.24,1.24-.62,0-.31-1.24-.62-1.24-.93-.93-1.85,1.24-2.16,1.24-4.94.31-12.36-2.78-14.21-5.25-2.47-3.09-4.33-14.21-4.94-18.54,0-1.24.93-1.24,1.24-1.24,0-1.24-1.24-1.24-1.24-1.24-.31-8.03,3.09-16.38,3.09-22.25,0-.93.62-1.55.62-1.24.62-1.24-.62-2.16-.62-3.09,0,0,1.55-1.55,1.85-2.47.62-1.55,2.16-4.33,1.85-5.25,0-.31-.93.31-.93-1.24,0,0,.93-.31.93-1.24.31-.93,0-2.16,0-2.47.31-.93,1.55-2.16,1.85-3.09.93-1.55.62-3.09.93-4.94,0-.31.93-.62,1.24-1.55,1.24-2.47,1.24-7.42,3.09-7.42,1.55-.62,3.09-9.58,3.71-10.82,3.09-3.09,4.94-7.42,7.42-11.74,1.24-1.85,2.78-3.09,3.71-5.25.93-1.24.31-2.47,1.24-3.71,0-.62,1.55-1.24,1.55-1.85.62,0,0-1.85,0-2.47.93-.62,2.47-.31,3.09-1.24.62-1.24.31-2.78,1.24-4.02.31-.62,1.85-.62,2.78-1.24.31-.93.93-3.09,1.55-3.71,2.78-3.71,7.73-11.43,9.58-12.05.62,0,1.85.31,2.16,0,.31,0-.31-2.16,0-2.47.31-.62,1.55.31,1.55,0,.62-.62,0-2.16,0-2.47.62-.62,1.85.31,2.16,0,1.24-1.24,2.16-1.85,3.09-3.09,1.24-1.24,2.47-3.71,3.71-4.94,1.55-1.55,4.94-1.24,5.56-4.02,1.85.31,2.16-1.85,3.09-2.47,2.47-2.47,4.02-4.64,7.42-4.33,1.24-3.4,2.47-3.71,4.94-3.71.93,0,.31-1.24.93-1.24,2.16-1.24,5.87-2.47,7.73-2.78.93,0,1.24,1.24,1.85,1.55,0,0,.31-1.55,1.24-1.55,0,0,0,1.24.62,1.55,1.85.31,4.33-.31,5.25,2.47,1.55,5.87.31,9.58,0,11.74-.62.31,0,1.24,0,1.24-.62,1.55-.93.62-1.24,1.55-3.09,6.8-5.87,12.98-9.58,18.23-.62,2.47-1.85,2.47-3.09,3.71-.62,2.16-1.85,3.4-1.55,6.8,4.02,2.47,7.73,2.47,11.12,0,3.09-2.16,3.4-5.56,5.87-8.03.93-3.09,4.64-4.02,6.49-7.73.93-.93.62-2.47,1.24-3.71,0-.93,1.24-2.16,1.85-3.09.62-.62,1.55-1.24,2.16-2.47,4.02-8.34-2.78-14.52-4.02-22.25-3.09-.93-6.49-4.64-7.73-6.18-.31-1.24-4.33-1.85-4.64-1.85-1.24,0-.93-.62-1.24-1.24-2.78-1.24-4.64-.93-7.42-1.24-1.55-.31-3.4-1.24-4.94-1.24-3.09,0-6.8,2.47-10.51,3.71-.62.62-1.85,0-2.78,0-.31.62-1.24,2.47-2.16,3.09-1.55.62-4.64.31-5.25,1.24-.62,0-1.85,1.85-2.16,2.47-.93.62-1.24,1.85-2.16,2.78-.62.93-1.55.31-2.78,1.24-.93.93-1.85,1.55-3.09,2.47-3.71,3.4-7.42,6.8-10.2,9.27-.93,2.78-3.4,4.33-3.71,5.25-.62.62.62,1.85.62,1.24-.31,1.85-1.24,1.85-1.55,2.47-1.55,2.16-3.4,5.56-7.11,5.56-.62,4.02-3.09,7.11-4.33,8.96-.93,1.24-2.16,1.85-2.16,4.33-.62,1.55-3.09,0-3.71,1.24-.62.31.31,1.85,0,2.47-.93.62-1.24,1.55-2.16,2.47,0,.31-1.24-.62-1.55,0-.93.93,0,2.78-1.24,2.78-1.85,0-.93,4.33-1.85,4.94-1.24,2.16-3.4,3.09-4.94,4.33-.31,7.11-7.42,11.12-7.42,17,0,1.55-.93.31-.93,1.24-1.85,4.02-4.94,9.58-7.11,12.05,0,.31.62,2.16,0,2.47-.31,1.24-2.47,2.78-2.78,3.71,0,.93.31,2.16,0,2.78-.31,2.47-1.24,4.64-1.55,6.8-1.24,4.02-2.47,9.89-3.09,11.43-1.24,6.49-1.85,14.21-1.85,20.09,0,2.47.62,3.71,1.24,4.94,0,2.47-.62,6.18,0,8.03,0,.31,1.24,1.85,1.55,2.78.93,1.55.31,3.4,1.24,4.94,0,.93,1.24,2.16,1.55,2.78,1.24,2.16,3.09,5.56,3.71,6.49.93.62,2.16.31,3.09,1.55,1.24,1.24,2.47,3.71,4.02,4.94,1.24,1.55,2.47,4.02,3.71,5.56.62.62,2.16.62,3.09,1.24,0,0,.31.62.62,1.24,1.85,1.55,5.25,1.85,8.96,2.47,6.49,1.55,16.38,3.09,23.49,1.55,1.24-.31,1.24-1.24,2.16-1.55,1.24,0,.31-.93.93-1.24.62-.62,1.85.62,2.78,0,.31,0,.31-2.47,1.24-2.47,1.24-.93.93,1.85,1.55,0,.62-.62,1.85,0,2.16,0,2.47-.93,4.33-2.16,4.64-2.78.31-.31,1.55,0,2.16,0,.31-.31,1.24-2.47,1.85-2.78,2.16-1.24,4.64-1.55,5.56-2.47.62-.31,1.55-2.16,1.85-2.47.93-.93,1.24-2.16,2.16-2.78,0-.62,1.85.31,1.85,0,1.24-1.85,0-5.56,1.85-5.25,2.47-.62,4.64-3.09,6.8-5.25.62-.93,1.85-2.78,2.78-3.71,1.24-1.55,3.09-1.55,3.71-2.78,4.33-5.25,7.42-11.74,11.74-17.3h.93c1.24,0,2.78-2.78,2.78-3.71,0-2.78,2.16-2.78,2.78-4.02.93-.93.62-2.78.93-3.71.31-.31,1.55.31,2.16,0,.62-1.24,1.85-3.71.62-5.56Z"/>
      <path d="m288.27,243.15c.93-.62,2.16-.62,3.71-.62-.31.31-.62.31-.93.31,0,0,.62.93,0,1.24h-1.24l-1.85,2.78c-.62.31-.31,1.24-1.24,2.47l-1.55,1.85c-.62.62-4.33,7.11-9.58,15.76l-3.09,6.18c-.93,1.24-2.47,3.09-3.4,4.64l-7.42,13.29-2.47,4.02c-1.85,3.4-1.85,5.25-3.4,8.03l-1.24,2.16c-.62.93-1.55,1.24-2.16,2.16-2.16,3.71-2.78,6.8-3.09,7.11-.31.62-1.24,1.55-1.85,1.85l-.31,1.24-2.47,3.71-1.85,2.47c-.31-1.24.93-3.71.93-4.33-.31-2.47,1.24-3.71,1.85-5.56.62-3.4.93-6.18,1.55-7.11,1.24-1.85,1.85-3.09,1.85-4.64,0-1.24.93-.62.93-1.24.93-2.16.62-4.64.93-6.8.31-2.78,2.47-4.94,2.16-8.65,2.16-.62,1.55-2.78,2.78-4.33,0-.93,1.24-1.24,1.24-1.85.62-1.24,0-2.78,0-4.02.62-.31,2.16-.62,2.16-1.24,0-.93,0-2.16.62-2.78l1.24-.93c.93-1.55,1.24-3.09.93-4.64-2.78,0-5.56-1.85-8.96-1.24-2.47,4.33-3.4,10.2-7.42,12.05-4.02.31-8.03-.62-11.43,0-1.24.31-2.16,1.55-3.09,1.55-2.47.62-2.47,1.24-3.71,2.16-.62.31,0,.31-1.24.93-.31.31-1.24.31-1.85.93-.93.93-.93,2.78-1.55,3.4,0,.31-1.85,0-1.85,0-.31.62-.31,2.47-.93,2.78-.31.93-.31.31-.62.93-1.55.93-2.47,2.16-3.09,3.71-.93,1.85-1.85,3.4-2.78,4.33-4.94,7.73-10.2,17.92-11.74,24.72.31,2.47,2.78,1.85,3.71,2.78.31.31-.31,1.24,0,1.85.31.62,2.47.62,3.09,1.24,1.55,1.24,4.64.62,8.65.62,1.55-2.47,3.71-1.24,3.71-2.78,0-1.85,3.09-.93,3.4-1.85,1.24-.62,1.55-2.47,1.85-4.02,1.24-.62,2.16-1.24,2.78-2.16.62-.93,2.16-1.85,3.09-2.78.31-.62,0-3.71,2.16-3.09-1.24,4.94-2.78,9.27-2.16,16.07,0,.62,2.78,0,3.4.62.31,0,0,1.55,0,2.16,1.24.62,2.78,1.24,3.71,2.16h1.55l.31-.31-.31.62c1.24,0,4.33,1.55,5.87,1.24.93,0,.93-.62,2.16-1.55.62,0,1.24,0,1.55-.31.93-.62-.31-1.85.62-2.47.31,0,1.55-.93,1.24-1.55.93-.62.62-2.16.93-2.78.62-1.85,2.16-4.02,2.16-5.56-.31-.93.31-.62.31-.93,1.55-1.55,1.55-3.4,3.09-4.94,0,0-.31-.62,0-.93h.93s1.24-2.16,3.09-5.56c.93-1.55.62-5.56,1.85-7.73.62-1.24,1.55-1.85,2.47-3.4.93-1.55,1.24-3.71,2.16-5.25,5.56-10.2,11.74-21.94,16.38-29.97-.93,1.85-1.85,4.94-1.85,6.49,0,.93.31.62.93.93,1.24,3.4-2.16-.93-1.55,1.85,0,0,.93.62.62,1.55-2.47-1.55-.31,0-.62.93-.93,2.16-3.09,8.34-4.94,9.27.62,4.02-1.85,8.03-2.16,8.96-.31,0,0,1.24,0,1.85-.31,0-.62-.62-.62,0-.62,0,0,1.85,0,1.85-.62.31-1.24,0-1.24,0-.31.62.62,3.4-1.24,2.78,1.24,1.85-.93,4.64-.93,5.56v2.16c-.62.62-2.47-.31-1.85,1.24-.62,1.24,0,2.16-.62,3.09h-.62v2.78c0,1.85-1.85,1.85-1.85,3.09,0,0,1.85,1.55,0,2.16-.62,0-.62.31-.62,1.24s-.31.93-.31.93c-.62,1.55-1.24,4.02-1.24,6.18l-.62,6.49h-.93c-.31.31,0,1.24,0,1.85l-1.55,9.27c-.31,6.8-.93,14.52,0,20.09.31,1.24,1.24,2.16,1.55,3.4,1.24,6.18,1.24,7.11,3.71,10.51,3.09,3.4,5.87,4.02,10.2,3.71.93-3.71-3.09-3.4-3.4-5.56-1.55,0-.93-1.85-1.85-1.85.93-3.71-.62-9.58,0-15.45,0,0,.93-.31.93-.62,0-1.85-1.55-1.24,0-2.16.31-.31,0-3.71,0-4.33,0-1.55.93-1.55,1.24-3.09,1.24-3.71,0-6.18,1.85-7.11.31-1.24.31-4.64.31-4.94.93-2.47.62-4.64.93-6.8h.93l.62-2.78c.62-1.24.62-1.85.93-2.78.93-1.24.31-3.09.93-4.94l1.55-2.16c0-1.24-.62-1.85,0-1.85,0-.62,1.24-1.55,1.55-2.47.93-2.47,0-3.4.93-5.87,0,0,1.24-.62,1.24-1.24l1.55-5.87c1.24-3.4,3.09-7.73,2.47-11.12l2.47-2.16c-.31,0-1.55-.62-.93-2.16,0,0,1.24.62,1.55,0,.93-.93.31-4.02.93-4.02.31-1.24.93-1.55,1.55-2.16-1.55-1.24.62-4.02,1.24-5.87,1.24-1.85,1.24-5.56,3.4-5.56,0-2.78,1.24-5.25,1.55-6.49l.93-3.09s.93-.62,1.55-.62c.31-.93.31-2.16.93-2.78l.93-5.25c2.47-4.64,5.87-10.2,7.42-16.38,1.24.62,1.85-.62,3.09-.93,3.09-1.85,5.56-1.24,7.11-3.09h1.24c2.78-.31,3.71-.31,5.56-.93,1.24-.62,2.78-.62,4.02-1.24,0,0-.31-.31,0-.62.62-.93,2.16.31,2.78-.93.62,0,1.55.31,1.55,0,2.47-.62,4.94-1.55,7.42-1.55,1.85-.31,4.33-.93,6.18-.93,1.24-.93,1.55.93,3.09.93.93,0,.93-.93,2.16-.93,1.55-.93,3.09,0,4.33,0,0,0-.62-1.85.93-1.24,0,0-.62,1.24,0,1.24,0-.31.31-1.24.93-1.24.93,0,1.24,1.24,1.55,1.24,0,0,.62-1.24.93-1.24,6.18-1.85,12.67-1.24,18.85-1.85,1.85-.62,4.02-.93,4.64-.93s.93.93.93.93c.93,0,.93-.93,1.55-.93.31,0,.93.93,1.24.93.93,0,.93-.93,1.55-.93h3.4c.31,0,.62.93.62.93,1.85,0,3.4-.93,4.64-.93s1.85,0,2.47.93c.31.62,1.24-.93.93-.93,5.25,0,11.43-.62,15.14,0,2.47.31,3.71,1.55,5.56,1.55.93-4.02-4.33-5.56-5.56-6.49-1.55-1.24-3.09-1.24-5.87-1.85-2.16-.62-3.71-1.55-5.25-1.55-1.55-.62-2.47,0-3.4,0-1.55-.62-2.16-1.24-3.4-1.24-5.87-.62-12.05-1.85-18.54-.62-2.16,0-3.71,1.24-5.25.62-2.47-.62-1.55,0-4.02,0-2.16,0-4.94-.62-6.8,0-1.24,0-1.24,1.24-2.47,1.24.31,0-.62-1.24-.93-1.24-.93,0-.93,1.24-1.55,1.24-4.02,0-8.34.31-10.82.93-2.78,0-4.64-.62-5.56.62-1.24,1.85-3.71-.62-4.33.62-.31,1.24-1.55-.31-1.24-.62-.93,0-.93.62-2.16.62-3.4,1.24-9.27,1.24-10.2,2.16,0,.62-.93,0-1.24,0-2.78.62-5.56,2.47-7.11,0,.62,0,0-.93,0-2.16.62-2.78,3.09-4.02,3.71-6.8,1.85,0,3.4-2.16,3.4-3.4,0-.93.31,0,.31-.93.93-1.85,2.16-4.02,1.85-6.18-.93-4.02-5.56-4.94-7.73-4.02-.31.31-1.55,0-1.55,0-.31.31,0,1.85,0,1.85-2.47,2.47-4.94,5.56-6.8,7.73l-1.85,4.94h-.93v1.55c0,.62-1.24,1.24-1.55,1.85-.93,1.55-1.55,3.4-2.47,4.64-.31.93-1.24,1.55-1.24,1.85-.62,1.24,0,1.85-1.24,3.09-.62,1.55-1.55,2.78-2.78,4.02-.62.62-3.4.62-4.94.93-2.16.31-4.33,2.47-5.25,2.47-.31.31-.93,0-1.55,0-2.16.62-4.64,2.78-5.56,2.78-.93.31-1.85.93-2.16.93q-2.47.31-4.02.93c-8.34,3.09-15.45,6.49-23.18,7.42,0,1.55-.31,3.09,0,4.02,0,1.85.62,1.24,1.24,2.78,1.24,1.85,1.55,1.85,3.09,3.09.62,0,.62,1.24.93,1.24.31.93,1.55,0,2.47,0,.62.93.62,1.24,2.16,1.24,1.85.62,4.33-1.24,7.42-2.16,3.09-.31,6.18,0,7.42-1.55,0-.31,1.24,0,1.85,0,.62-.31.62-.62,1.55-1.85,0-.31,1.24,0,1.24,0,.93-.31,1.55-.93,2.47-.93Zm-54.08,42.34c1.24-.62,1.24-3.4,2.78-2.47.62.93,2.47.31,4.02.93-3.4,5.25-7.11,10.2-10.82,15.14l-5.87,7.73c-1.55,1.55-3.4,4.94-6.18,6.18.62,2.78-2.16,2.16-2.78,4.64-.93-.62-1.24,0-1.85.93-.93,0,0-3.4.93-4.64l1.85-4.94,3.09-4.02c0-.62.62-1.24.62-1.24.62-.93,0-2.78.93-3.71.62-.31,1.85-.93,2.47-1.85.93-.93.62-2.16.93-3.4,1.24-.62,3.09-.62,3.09-2.78,0-1.24,1.24-.62,1.55-.93.62-.31-.31-1.55,0-1.85.62-.62,1.85-.62,2.16-.93l1.85-2.16c.62,0,1.24-.31,1.24-.62Zm58.09-42.95c.62-.62,1.24-1.85,1.85-2.16-.62.62-1.24,1.24-1.24,1.85-.31,0-.31.31-.62.31Z"/>
    </g>
  </g>
</svg>